<svg width="193" height="53" viewBox="0 0 193 53" fill="none" xmlns="http://www.w3.org/2000/svg">
<path d="M55.5563 52H36.1003V50.016L42.1163 45.344L37.1883 33.504H15.6843L10.4363 45.6L21.7003 49.44L20.4203 52H0.96425V50.016L6.98025 45.28L25.0923 3.744L31.7483 0.479996L50.4363 45.536L56.8363 49.44L55.5563 52ZM26.6923 8.16L16.9643 30.624H36.0363L26.6923 8.16ZM191.556 52H172.1V50.016L178.116 45.344L173.188 33.504H151.684L146.436 45.6L157.7 49.44L156.42 52H136.964V50.016L142.98 45.28L161.092 3.744L167.748 0.479996L186.436 45.536L192.836 49.44L191.556 52ZM162.692 8.16L152.964 30.624H172.036L162.692 8.16Z" fill="#F3E9DD"/>
<path d="M119.436 47.264C121.868 47.264 125.324 45.5147 129.804 42.016L131.724 44.448L121.868 52.192C120.161 52.5333 118.113 52.704 115.724 52.704C113.292 52.704 111.094 52.192 109.132 51.168C107.212 50.144 105.697 48.7787 104.588 47.072C103.478 45.3227 102.924 43.4027 102.924 41.312C102.924 39.904 103.158 38.496 103.628 37.088L84.6198 52.128C82.6998 52.4693 80.2891 52.64 77.3878 52.64C74.3158 52.64 71.5638 51.872 69.1318 50.336C66.6998 48.7573 64.8011 46.6027 63.4358 43.872C62.0704 41.1413 61.3878 38.1333 61.3878 34.848C61.3878 31.3067 62.4544 28 64.5878 24.928C66.7211 21.856 69.3878 19.4027 72.5878 17.568C75.8304 15.7333 78.9451 14.816 81.9318 14.816C83.9798 14.816 85.8144 15.5627 87.4358 17.056C89.0571 18.5493 90.1238 20.1707 90.6357 21.92C92.4704 19.8293 94.5398 18.1227 96.8438 16.8C99.1904 15.4773 101.409 14.816 103.5 14.816C105.164 14.816 106.636 15.0293 107.916 15.456C109.196 15.8827 110.689 16.544 112.396 17.44C114.23 18.336 115.788 19.0187 117.068 19.488C118.348 19.9147 119.862 20.128 121.612 20.128C122.636 20.128 123.681 19.8933 124.748 19.424C125.857 18.912 126.774 18.2293 127.5 17.376C128.268 16.5227 128.652 15.5627 128.652 14.496C128.652 12.9173 127.841 11.4027 126.22 9.952C124.598 8.50133 122.337 7.2 119.436 6.048V4.064L126.86 1.312C128.182 2.63466 129.548 4.49066 130.956 6.88C132.406 9.26933 133.132 11.3173 133.132 13.024C133.132 15.1147 132.278 17.2907 130.572 19.552C128.865 21.7707 126.838 23.648 124.492 25.184C122.188 26.6773 120.289 27.424 118.796 27.424C117.558 27.424 116.406 27.36 115.34 27.232C113.889 28.256 112.822 29.6427 112.14 31.392C111.5 33.0987 111.18 35.36 111.18 38.176C111.18 40.8213 111.884 42.9973 113.292 44.704C114.7 46.368 116.726 47.2 119.372 47.2L119.436 47.264ZM81.0998 47.264C82.6784 47.264 84.4064 46.88 86.2838 46.112C88.1611 45.3013 90.4864 43.7867 93.2598 41.568L112.332 26.592C110.966 26.208 109.068 25.4827 106.636 24.416C104.929 23.6907 103.521 23.1573 102.412 22.816C101.302 22.432 100.108 22.24 98.8278 22.24C97.4198 22.24 96.0758 22.496 94.7958 23.008C93.5158 23.4773 92.1291 24.3733 90.6357 25.696C90.2091 27.5307 89.2491 29.28 87.7558 30.944C86.3051 32.5653 84.5984 34.0587 82.6358 35.424C80.7158 36.7893 78.0491 38.5387 74.6358 40.672L73.2917 38.112C76.7478 35.9787 79.0944 33.9307 80.3318 31.968C81.5691 29.9627 82.1878 27.872 82.1878 25.696C82.1878 24.2027 81.7184 22.9227 80.7798 21.856C79.8411 20.7893 78.7744 20.256 77.5798 20.256C75.0197 20.256 73.0571 21.2373 71.6918 23.2C70.3691 25.1627 69.7078 28.0427 69.7078 31.84C69.7078 36.2347 70.6891 39.904 72.6518 42.848C74.6144 45.792 77.4304 47.264 81.0998 47.264Z" fill="#8DC12B"/>
</svg>
