<svg width="385" height="106" viewBox="0 0 385 106" fill="none" xmlns="http://www.w3.org/2000/svg">
<path d="M109.613 104H70.7005V100.032L82.7325 90.688L72.8765 67.008H29.8685L19.3725 91.2L41.9005 98.88L39.3405 104H0.4285V100.032L12.4605 90.56L48.6845 7.488L61.9965 0.959991L99.3725 91.072L112.173 98.88L109.613 104ZM51.8845 16.32L32.4285 61.248H70.5725L51.8845 16.32ZM381.613 104H342.701V100.032L354.733 90.688L344.877 67.008H301.869L291.373 91.2L313.901 98.88L311.341 104H272.428V100.032L284.461 90.56L320.685 7.488L333.997 0.959991L371.373 91.072L384.173 98.88L381.613 104ZM323.885 16.32L304.429 61.248H342.573L323.885 16.32Z" fill="#F3E9DD"/>
<path d="M237.372 94.528C242.236 94.528 249.148 91.0293 258.108 84.032L261.948 88.896L242.236 104.384C238.822 105.067 234.726 105.408 229.948 105.408C225.084 105.408 220.689 104.384 216.764 102.336C212.924 100.288 209.894 97.5573 207.676 94.144C205.457 90.6453 204.348 86.8053 204.348 82.624C204.348 79.808 204.817 76.992 205.756 74.176L167.74 104.256C163.9 104.939 159.078 105.28 153.276 105.28C147.132 105.28 141.628 103.744 136.764 100.672C131.9 97.5147 128.102 93.2053 125.372 87.744C122.641 82.2827 121.276 76.2667 121.276 69.696C121.276 62.6133 123.409 56 127.676 49.856C131.942 43.712 137.276 38.8053 143.676 35.136C150.161 31.4667 156.39 29.632 162.364 29.632C166.46 29.632 170.129 31.1253 173.372 34.112C176.614 37.0987 178.748 40.3413 179.771 43.84C183.441 39.6587 187.58 36.2453 192.188 33.6C196.881 30.9547 201.318 29.632 205.5 29.632C208.828 29.632 211.772 30.0587 214.332 30.912C216.892 31.7653 219.878 33.088 223.292 34.88C226.961 36.672 230.076 38.0373 232.636 38.976C235.196 39.8293 238.225 40.256 241.724 40.256C243.772 40.256 245.862 39.7867 247.996 38.848C250.214 37.824 252.049 36.4587 253.5 34.752C255.036 33.0453 255.804 31.1253 255.804 28.992C255.804 25.8347 254.182 22.8053 250.94 19.904C247.697 17.0027 243.174 14.4 237.372 12.096V8.128L252.22 2.62399C254.865 5.26933 257.596 8.98133 260.412 13.76C263.313 18.5387 264.764 22.6347 264.764 26.048C264.764 30.2293 263.057 34.5813 259.644 39.104C256.23 43.5413 252.177 47.296 247.484 50.368C242.876 53.3547 239.078 54.848 236.092 54.848C233.617 54.848 231.313 54.72 229.18 54.464C226.278 56.512 224.145 59.2853 222.78 62.784C221.5 66.1973 220.86 70.72 220.86 76.352C220.86 81.6427 222.268 85.9947 225.084 89.408C227.9 92.736 231.953 94.4 237.244 94.4L237.372 94.528ZM160.7 94.528C163.857 94.528 167.313 93.76 171.068 92.224C174.822 90.6027 179.473 87.5733 185.02 83.136L223.164 53.184C220.433 52.416 216.636 50.9653 211.772 48.832C208.358 47.3813 205.542 46.3147 203.324 45.632C201.105 44.864 198.716 44.48 196.156 44.48C193.34 44.48 190.652 44.992 188.092 46.016C185.532 46.9547 182.758 48.7467 179.771 51.392C178.918 55.0613 176.998 58.56 174.012 61.888C171.11 65.1307 167.697 68.1173 163.772 70.848C159.932 73.5787 154.598 77.0773 147.772 81.344L145.083 76.224C151.996 71.9573 156.689 67.8613 159.164 63.936C161.638 59.9253 162.876 55.744 162.876 51.392C162.876 48.4053 161.937 45.8453 160.06 43.712C158.182 41.5787 156.049 40.512 153.66 40.512C148.539 40.512 144.614 42.4747 141.884 46.4C139.238 50.3253 137.916 56.0853 137.916 63.68C137.916 72.4693 139.878 79.808 143.804 85.696C147.729 91.584 153.361 94.528 160.7 94.528Z" fill="#8DC12B"/>
</svg>
