<svg width="45" height="45" viewBox="0 0 45 45" fill="none" xmlns="http://www.w3.org/2000/svg">
<path d="M41.9903 12.5187V29.7514C41.9872 30.4466 41.6368 31.1126 41.0157 31.6042C40.3946 32.0958 39.553 32.3731 38.6746 32.3756H36.3046V36.5487C36.3046 37.1693 35.76 37.4061 35.0986 37.0793L25.5735 32.3756H6.21216C5.33376 32.3731 4.49223 32.0958 3.87111 31.6042C3.24998 31.1126 2.89964 30.4466 2.89648 29.7514V12.5187C2.89964 11.8235 3.24998 11.1575 3.87111 10.6659C4.49223 10.1743 5.33376 9.89703 6.21216 9.89453H38.6746C39.553 9.89703 40.3946 10.1743 41.0157 10.6659C41.6368 11.1575 41.9872 11.8235 41.9903 12.5187ZM36.3046 16.4906H8.58221V19.1124H36.3046V16.4906ZM36.3046 23.224H8.58221V25.8482H36.3046V23.224Z" fill="#4F2911"/>
</svg>
