<svg width="50" height="50" viewBox="0 0 50 50" fill="none" xmlns="http://www.w3.org/2000/svg">
<path d="M48.3652 16.3179C48.3652 16.7046 48.1711 17.0754 47.8256 17.3488C47.4802 17.6222 47.0117 17.7758 46.5231 17.7758H40.5714C40.1611 19.0287 39.2368 20.1383 37.9436 20.9304C36.6503 21.7225 35.0613 22.1523 33.426 22.1523C31.7907 22.1523 30.2017 21.7225 28.9084 20.9304C27.6152 20.1383 26.6909 19.0287 26.2806 17.7758H3.35152C2.86298 17.7758 2.39445 17.6222 2.049 17.3488C1.70355 17.0754 1.50947 16.7046 1.50947 16.3179C1.50947 15.9313 1.70355 15.5605 2.049 15.287C2.39445 15.0136 2.86298 14.86 3.35152 14.86H26.2806C26.6897 13.606 27.6138 12.4951 28.9075 11.702C30.2012 10.9089 31.7912 10.4785 33.4277 10.4785C35.0641 10.4785 36.6541 10.9089 37.9478 11.702C39.2416 12.4951 40.1656 13.606 40.5747 14.86H46.5231C46.765 14.86 47.0045 14.8977 47.228 14.971C47.4515 15.0443 47.6546 15.1517 47.8256 15.287C47.9967 15.4224 48.1324 15.5831 48.2249 15.76C48.3175 15.9369 48.3652 16.1265 48.3652 16.3179ZM48.3652 26.0548C48.3652 26.4414 48.1711 26.8123 47.8256 27.0857C47.4802 27.3591 47.0117 27.5127 46.5231 27.5127H23.2316C22.8213 28.7655 21.897 29.8751 20.6038 30.6672C19.3105 31.4593 17.7215 31.8891 16.0862 31.8891C14.4509 31.8891 12.8619 31.4593 11.5687 30.6672C10.2754 29.8751 9.35108 28.7655 8.94081 27.5127H3.35484C2.8663 27.5127 2.39777 27.3591 2.05232 27.0857C1.70687 26.8123 1.5128 26.4414 1.5128 26.0548C1.5128 25.6681 1.70687 25.2973 2.05232 25.0239C2.39777 24.7505 2.8663 24.5969 3.35484 24.5969H8.94081C9.35108 23.344 10.2754 22.2344 11.5687 21.4423C12.8619 20.6502 14.4509 20.2204 16.0862 20.2204C17.7215 20.2204 19.3105 20.6502 20.6038 21.4423C21.897 22.2344 22.8213 23.344 23.2316 24.5969H46.5231C47.0117 24.5969 47.4802 24.7505 47.8256 25.0239C48.1711 25.2973 48.3652 25.6681 48.3652 26.0548ZM48.3652 35.7916C48.3656 35.9833 48.3183 36.1732 48.2259 36.3503C48.1335 36.5275 47.9979 36.6885 47.8268 36.8242C47.6557 36.9599 47.4525 37.0675 47.2288 37.1409C47.0051 37.2143 46.7653 37.2521 46.5231 37.2521H40.5714C40.1611 38.505 39.2368 39.6146 37.9436 40.4067C36.6503 41.1988 35.0613 41.6286 33.426 41.6286C31.7907 41.6286 30.2017 41.1988 28.9084 40.4067C27.6152 39.6146 26.6909 38.505 26.2806 37.2521H3.35152C2.86254 37.2521 2.39358 37.0984 2.04782 36.8247C1.70206 36.5511 1.50781 36.1799 1.50781 35.7929C1.50781 35.4059 1.70206 35.0348 2.04782 34.7611C2.39358 34.4875 2.86254 34.3337 3.35152 34.3337H26.2806C26.6897 33.0797 27.6138 31.9688 28.9075 31.1757C30.2012 30.3826 31.7912 29.9522 33.4277 29.9522C35.0641 29.9522 36.6541 30.3826 37.9478 31.1757C39.2416 31.9688 40.1656 33.0797 40.5747 34.3337H46.5231C47.0117 34.3337 47.4802 34.4873 47.8256 34.7607C48.1711 35.0341 48.3652 35.405 48.3652 35.7916ZM19.7803 26.0548C19.7796 25.4773 19.5627 24.9129 19.1569 24.4329C18.7511 23.953 18.1746 23.579 17.5004 23.3582C16.8261 23.1374 16.0843 23.0798 15.3687 23.1926C14.6531 23.3054 13.9957 23.5836 13.4798 23.9919C12.9638 24.4003 12.6124 24.9205 12.4699 25.4869C12.3274 26.0533 12.4002 26.6404 12.6791 27.174C12.958 27.7077 13.4306 28.1639 14.037 28.4851C14.6434 28.8062 15.3565 28.9779 16.0862 28.9785C17.0645 28.9771 18.0022 28.6689 18.694 28.1214C19.3858 27.5739 19.7752 26.8317 19.7769 26.0574L19.7803 26.0548ZM37.1201 16.3179C37.1207 15.7395 36.9045 15.1738 36.4989 14.6926C36.0932 14.2114 35.5163 13.8363 34.8412 13.6147C34.1661 13.3931 33.423 13.3349 32.7061 13.4477C31.9893 13.5604 31.3307 13.8389 30.8139 14.2479C30.2971 14.657 29.9452 15.1782 29.8028 15.7456C29.6603 16.3129 29.7338 16.901 30.0138 17.4354C30.2938 17.9697 30.7678 18.4263 31.3758 18.7473C31.9838 19.0684 32.6984 19.2395 33.4293 19.239C34.4076 19.2376 35.3454 18.9294 36.0371 18.3819C36.7289 17.8344 37.1183 17.0922 37.1201 16.3179ZM37.1201 35.7916C37.1201 35.2133 36.9033 34.6479 36.4973 34.167C36.0912 33.6862 35.5141 33.3114 34.8389 33.0902C34.1637 32.869 33.4208 32.8113 32.7041 32.9243C31.9874 33.0373 31.3292 33.316 30.8127 33.7252C30.2962 34.1343 29.9447 34.6555 29.8025 35.2228C29.6604 35.7902 29.734 36.3781 30.0141 36.9123C30.2942 37.4465 30.7682 37.9029 31.3761 38.2239C31.984 38.5448 32.6986 38.7158 33.4293 38.7153C34.4076 38.7139 35.3454 38.4057 36.0371 37.8582C36.7289 37.3107 37.1183 36.5685 37.1201 35.7942V35.7916Z" fill="#4F2911"/>
</svg>
