<svg width="50" height="50" viewBox="0 0 50 50" fill="none" xmlns="http://www.w3.org/2000/svg">
<path d="M21.875 5.46875C19.7211 5.46875 17.9688 7.22109 17.9688 9.375V11.7188H10.1562C9.29375 11.7188 8.59375 12.4187 8.59375 13.2812C8.59375 14.1438 9.29375 14.8438 10.1562 14.8438H11.8042L13.1195 38.5406C13.2586 41.0235 15.3127 42.9688 17.7994 42.9688H32.2006C34.6866 42.9688 36.7414 41.0235 36.8805 38.5406L38.1958 14.8438H39.8438C40.7062 14.8438 41.4062 14.1438 41.4062 13.2812C41.4062 12.4187 40.7062 11.7188 39.8438 11.7188H32.0312V9.375C32.0312 7.22109 30.2789 5.46875 28.125 5.46875H21.875ZM21.875 8.59375H28.125C28.5562 8.59375 28.9062 8.94453 28.9062 9.375V11.7188H21.0938V9.375C21.0938 8.94453 21.4438 8.59375 21.875 8.59375ZM14.9323 14.8438H35.0677L33.7601 38.3667C33.714 39.1948 33.0295 39.8438 32.2006 39.8438H17.7994C16.9713 39.8438 16.286 39.1956 16.2399 38.3682L14.9323 14.8438ZM25 18.1641C24.2445 18.1641 23.6328 18.7766 23.6328 19.5312V35.1562C23.6328 35.9109 24.2445 36.5234 25 36.5234C25.7555 36.5234 26.3672 35.9109 26.3672 35.1562V19.5312C26.3672 18.7766 25.7555 18.1641 25 18.1641ZM19.252 18.1656C18.4981 18.1922 17.9079 18.8239 17.9337 19.5786L18.4784 35.2707C18.5042 36.009 19.1112 36.5906 19.8441 36.5906C19.8605 36.5906 19.8765 36.5906 19.8929 36.5906C20.6468 36.564 21.237 35.9308 21.2112 35.1761L20.6665 19.4839C20.6399 18.73 20.0051 18.1476 19.252 18.1656ZM30.7465 18.1656C29.991 18.1445 29.3601 18.73 29.3335 19.4839L28.7888 35.1761C28.7622 35.9308 29.3524 36.564 30.1071 36.5906C30.1235 36.5914 30.1395 36.5906 30.1559 36.5906C30.8888 36.5906 31.4958 36.009 31.5216 35.2707L32.0663 19.5786C32.0929 18.8239 31.5011 18.1922 30.7465 18.1656Z" fill="#D9D9D9"/>
</svg>
