<svg width="50" height="39" viewBox="0 0 50 39" fill="none" xmlns="http://www.w3.org/2000/svg">
<path d="M46.6781 5.66398C47.5245 5.66646 48.3354 5.97139 48.9342 6.51232C49.533 7.05324 49.8711 7.78629 49.8748 8.55169V19.8577C49.8559 20.646 49.5245 21.402 48.9409 21.9879C48.3574 22.5739 47.5605 22.9507 46.6955 23.0498L17.1553 25.8214C16.9911 25.8606 16.8219 25.8807 16.652 25.8811C16.1209 25.8811 15.6115 26.0719 15.2359 26.4115C14.8604 26.7512 14.6494 27.2118 14.6494 27.6921C14.6494 28.1725 14.8604 28.6331 15.2359 28.9728C15.6115 29.3124 16.1209 29.5032 16.652 29.5032H46.1124C46.6306 29.5032 47.1277 29.6894 47.4941 30.0208C47.8606 30.3522 48.0665 30.8017 48.0665 31.2704C48.0665 31.7391 47.8606 32.1885 47.4941 32.5199C47.1277 32.8514 46.6306 33.0375 46.1124 33.0375H42.9539C43.6075 33.4127 44.1087 33.9696 44.3823 34.6245C44.6559 35.2794 44.687 35.9969 44.471 36.6692C44.255 37.3414 43.8035 37.9321 43.1844 38.3524C42.5654 38.7728 41.8122 39 41.038 39C40.2639 39 39.5107 38.7728 38.8917 38.3524C38.2726 37.9321 37.8211 37.3414 37.6051 36.6692C37.3891 35.9969 37.4202 35.2794 37.6938 34.6245C37.9673 33.9696 38.4686 33.4127 39.1222 33.0375H20.9836C21.6372 33.4127 22.1384 33.9696 22.412 34.6245C22.6856 35.2794 22.7167 35.9969 22.5007 36.6692C22.2847 37.3414 21.8332 37.9321 21.2141 38.3524C20.5951 38.7728 19.8419 39 19.0677 39C18.2936 39 17.5404 38.7728 16.9213 38.3524C16.3023 37.9321 15.8508 37.3414 15.6348 36.6692C15.4188 35.9969 15.4499 35.2794 15.7235 34.6245C15.997 33.9696 16.4983 33.4127 17.1518 33.0375H16.6486C15.8724 33.0375 15.1037 32.8993 14.3866 32.6306C13.6695 32.362 13.0179 31.9683 12.469 31.4719C11.9201 30.9755 11.4847 30.3863 11.1877 29.7377C10.8907 29.0892 10.7378 28.3941 10.7378 27.6921C10.7378 26.9902 10.8907 26.2951 11.1877 25.6466C11.4847 24.998 11.9201 24.4087 12.469 23.9124C13.0179 23.416 13.6695 23.0223 14.3866 22.7536C15.1037 22.485 15.8724 22.3468 16.6486 22.3468C16.798 22.3466 16.947 22.3613 17.0928 22.3907L8.0097 3.53273H2.03641C1.7731 3.54277 1.51026 3.50454 1.26371 3.42034C1.01717 3.33614 0.791998 3.20771 0.601758 3.04277C0.411519 2.87783 0.260139 2.67979 0.156725 2.46057C0.0533106 2.24135 0 2.00548 0 1.76715C0 1.52882 0.0533106 1.29294 0.156725 1.07373C0.260139 0.854506 0.411519 0.656471 0.601758 0.491532C0.791998 0.326594 1.01717 0.19816 1.26371 0.113958C1.51026 0.0297567 1.7731 -0.00847287 2.03641 0.00156949H9.29043C9.66985 0.00156593 10.041 0.101631 10.3585 0.28951C10.676 0.477389 10.926 0.744924 11.0779 1.05935L13.2992 5.66084L46.6781 5.66398Z" fill="#4F2911"/>
</svg>
