<svg width="42" height="50" viewBox="0 0 42 50" fill="none" xmlns="http://www.w3.org/2000/svg">
<path d="M25.4799 11.9585L34.9047 20.8217L38.5699 17.3796C39.1497 16.8317 39.4752 16.0904 39.4752 15.3177C39.4752 14.545 39.1497 13.8037 38.5699 13.2559L33.5299 8.51902C32.9466 7.97393 32.1574 7.66797 31.3347 7.66797C30.5121 7.66797 29.7229 7.97393 29.1395 8.51902L25.4799 11.9585ZM3.28714 42.3927C3.38039 42.3926 3.47334 42.3829 3.56434 42.3638L13.1375 40.3374C13.9338 40.133 14.6708 39.7624 15.2935 39.2532L25.6787 29.4927L32.7123 22.8848L27.9243 18.3848L10.5083 34.7559L13.8151 37.8664C13.4747 38.1153 13.0898 38.3052 12.6783 38.4269L8.45594 39.319L5.79594 36.819L6.74794 32.8506C6.8769 32.4645 7.07894 32.1035 7.34434 31.7848L8.31034 32.6927L25.7319 16.3243L23.2847 14.0217L16.2483 20.6322L11.3455 25.2427L5.86594 30.3953C5.32432 30.9808 4.93002 31.6733 4.71234 32.4217L2.55634 41.419C2.41634 41.998 2.74114 42.3927 3.28714 42.3927Z" fill="#5C341B"/>
</svg>
