<svg width="35" height="48" viewBox="0 0 35 48" fill="none" xmlns="http://www.w3.org/2000/svg">
<g clip-path="url(#clip0_646_1206)">
<path d="M17.5006 0C8.90063 0 1.9046 5.55701 1.9046 12.3885C1.9046 19.2195 8.90063 24.774 17.5006 24.774C26.1003 24.774 33.0929 19.2195 33.0929 12.3885C33.0929 5.55701 26.1004 0 17.5006 0ZM17.5006 7.25851C21.0599 7.25851 23.9543 9.56093 23.9543 12.3885C23.9543 15.2149 21.06 17.5155 17.5006 17.5155C13.9406 17.5155 11.0432 15.2149 11.0432 12.3885C11.0432 9.56093 13.9406 7.25851 17.5006 7.25851ZM4.64243 25.1955C3.09942 25.1764 1.58208 25.7807 0.701871 26.895C-0.64327 28.5926 0.0011144 30.8327 2.13311 31.9005C4.95318 33.306 8.01329 34.3032 11.1868 34.878L2.4711 41.805C0.686887 43.2231 0.688397 45.5198 2.47298 46.938C3.36744 47.6458 4.53404 48 5.7036 48C6.87195 48 8.04247 47.6452 8.93422 46.9365L17.4969 40.131L26.0672 46.9365C27.8499 48.3542 30.7407 48.3542 32.5265 46.9365C34.3115 45.5193 34.3115 43.2201 32.5265 41.805L23.8071 34.8795C26.9815 34.3047 30.0426 33.307 32.8607 31.9005C34.9969 30.8328 35.6423 28.5902 34.2976 26.895C32.9514 25.197 30.1327 24.6855 27.9949 25.755C21.6102 28.9455 13.3835 28.9434 7.0007 25.755C6.26599 25.3874 5.45068 25.2055 4.64243 25.1955Z" fill="#F3E9DD"/>
</g>
<defs>
<clipPath id="clip0_646_1206">
<rect width="35" height="48" fill="white"/>
</clipPath>
</defs>
</svg>
