<svg width="29" height="37" viewBox="0 0 29 37" fill="none" xmlns="http://www.w3.org/2000/svg">
<path d="M27.3509 30.1606C26.9481 30.5634 26.4036 30.7894 25.8361 30.7894C25.2686 30.7894 24.7241 30.5634 24.3213 30.1606L17.7577 23.5493C15.5302 25.036 12.8339 25.6362 10.1918 25.2336C7.5498 24.8309 5.15044 23.4541 3.45927 21.3703C1.7681 19.2864 0.905696 16.6441 1.03939 13.956C1.17308 11.2679 2.29333 8.72558 4.18279 6.82241C6.07225 4.91923 8.5962 3.79085 11.265 3.65618C13.9337 3.52152 16.557 4.39018 18.6258 6.09363C20.6947 7.79708 22.0615 10.2139 22.4613 12.8751C22.861 15.5363 22.2651 18.2522 20.7891 20.4958L27.3509 27.1072C27.7513 27.5129 27.9761 28.0618 27.9761 28.6339C27.9761 29.206 27.7513 29.7549 27.3509 30.1606ZM15.0529 22.5601C17.053 21.7458 18.6803 20.2103 19.6172 18.253C20.5542 16.2958 20.7337 14.0571 20.1208 11.9737C19.5078 9.89035 18.1463 8.11169 16.3019 6.98469C14.4574 5.85768 12.2624 5.46316 10.1448 5.87807C8.0272 6.29299 6.13901 7.48759 4.84851 9.22885C3.55802 10.9701 2.95778 13.1332 3.16487 15.296C3.37196 17.4589 4.37154 19.4666 5.96862 20.9273C7.5657 22.3881 9.64574 23.1972 11.803 23.1968C12.9164 23.1986 14.0215 22.9823 15.0529 22.5601Z" fill="black"/>
</svg>
