<svg width="47" height="47" viewBox="0 0 47 47" fill="none" xmlns="http://www.w3.org/2000/svg">
<path d="M42.9602 4.78596C41.5012 3.76567 39.6643 3.61292 38.0526 4.38059L3.80722 22.4208C1.26138 23.7622 1.36909 27.4576 3.98934 28.6463C4.56313 28.9068 5.06055 29.1006 5.45418 29.2103L6.0123 29.3591L9.34147 30.1581C10.8063 30.5087 12.3495 30.1679 13.5303 29.2338L30.1116 16.0973C30.8949 15.4648 32.0366 15.5353 32.7396 16.2598C33.4427 16.9844 33.4819 18.1242 32.8278 18.8938L22.0706 32.61C21.068 33.8888 21.5125 35.7668 22.9813 36.4601L36.2509 42.7209C38.6342 43.8567 41.4249 42.2979 41.7108 39.6737L45.0223 9.2588C45.1927 7.48063 44.425 5.81017 42.9602 4.78596Z" fill="#F3E9DD"/>
</svg>
