<svg width="55" height="53" viewBox="0 0 55 53" fill="none" xmlns="http://www.w3.org/2000/svg">
<path d="M20.3577 4.52108C21.3302 1.89535 24.1093 0 27.3859 0C30.6625 0 33.4416 1.89535 34.4141 4.52108C41.143 6.98264 45.8811 12.873 45.8811 19.748V32.9134L53.8208 39.9779C54.986 41.0147 54.1607 42.7874 52.5128 42.7874H2.25852C0.610777 42.7874 -0.214443 41.0147 0.950682 39.9779L8.89068 32.9134V19.748C8.89068 12.873 13.6287 6.98264 20.3577 4.52108Z" fill="#C18553"/>
<path d="M19.9893 46.0781C19.9893 49.7137 23.3014 52.6608 27.3873 52.6608C31.4733 52.6608 34.7854 49.7137 34.7854 46.0781H19.9893Z" fill="#C18553"/>
</svg>
