<svg width="39" height="38" viewBox="0 0 39 38" fill="none" xmlns="http://www.w3.org/2000/svg">
<path d="M39 18.8033C39 22.5222 37.8563 26.1576 35.7137 29.2498C33.571 32.342 30.5255 34.752 26.9623 36.1752C23.3992 37.5984 19.4784 37.9708 15.6957 37.2452C11.9131 36.5197 8.43855 34.7289 5.71143 32.0992C2.9843 29.4695 1.12711 26.1191 0.374696 22.4716C-0.377716 18.8241 0.00844903 15.0434 1.48436 11.6076C2.96027 8.17172 5.45963 5.23505 8.66639 3.16892C11.8731 1.10279 15.6433 0 19.5 0C22.0608 0 24.5965 0.486361 26.9623 1.43131C29.3282 2.37627 31.4778 3.7613 33.2886 5.50735C35.0993 7.25339 36.5357 9.32625 37.5157 11.6076C38.4956 13.8889 39 16.334 39 18.8033ZM32.367 16.9009C33.8522 15.5732 33.4261 14.3002 31.4138 14.0698L27.7882 13.6565L24.1305 13.2385L21.0591 6.81639C20.6355 5.9305 20.0739 5.48636 19.5172 5.48636C18.9557 5.48636 18.3966 5.9305 17.9729 6.81639L14.9015 13.2385L11.2438 13.6565L7.6207 14.0698C5.60838 14.3002 5.17981 15.5732 6.6675 16.9009L9.3473 19.2901L12.0517 21.7008L11.3325 25.185L10.6207 28.636C10.3399 29.9992 10.8276 30.7925 11.7685 30.7925C12.2466 30.7684 12.7108 30.6288 13.1182 30.3864L19.5172 26.9307L25.9163 30.3864C26.3232 30.6277 26.7865 30.7666 27.2636 30.7901C28.2044 30.7901 28.6921 29.9992 28.4113 28.636L26.9828 21.7008L29.6872 19.2901L32.367 16.9009ZM30.6429 15.8772L28.3645 17.9079L28.3571 17.9126L25.6576 20.3209C25.4132 20.5393 25.2309 20.8144 25.1278 21.1199C25.0248 21.4255 25.0045 21.7514 25.069 22.0666L26.3941 28.4887L20.468 25.2919C20.1771 25.1351 19.8493 25.0527 19.516 25.0527C19.1827 25.0527 18.855 25.1351 18.564 25.2919L12.6404 28.4863L13.2438 25.5508V25.546L13.9631 22.0642C14.0277 21.749 14.0076 21.423 13.9045 21.1174C13.8015 20.8118 13.619 20.5368 13.3744 20.3185L8.38917 15.8748L15.1305 15.1029C15.4621 15.0655 15.7781 14.9464 16.0481 14.7571C16.3181 14.5679 16.5331 14.3148 16.6724 14.0223L19.5172 8.07754L22.3571 14.0247C22.4964 14.3172 22.7114 14.5703 22.9815 14.7595C23.2515 14.9488 23.5675 15.0679 23.899 15.1053L30.6429 15.8772Z" fill="#8DC12B"/>
</svg>
