<svg width="53" height="33" viewBox="0 0 53 33" fill="none" xmlns="http://www.w3.org/2000/svg">
<path fill-rule="evenodd" clip-rule="evenodd" d="M52.5788 26.8623C51.3433 24.4331 49.7156 22.214 47.758 20.2899C47.1023 19.5682 46.4167 18.8728 45.703 18.2056L45.6167 18.1236C45.3515 17.8726 45.0896 17.6183 44.831 17.3608C47.5077 13.7261 49.7978 9.83445 51.6659 5.74609L51.7409 5.58201L51.7931 5.40905C52.0406 4.60414 52.3222 3.07414 51.323 1.69049C50.2876 0.262494 48.6322 0.00527611 47.5218 0.00527611H42.4195C41.351 -0.0429535 40.2943 0.24046 39.401 0.814876C38.5076 1.38929 37.8234 2.22521 37.4466 3.20275C36.3486 5.75643 34.9738 8.18797 33.3457 10.4558V4.61744C33.3457 3.86353 33.273 2.59962 32.4442 1.53527C31.4542 0.258058 30.0213 0.00527611 29.0267 0.00527611H20.9293C19.8727 -0.0184647 18.8472 0.355538 18.0652 1.04983C17.2832 1.74412 16.8046 2.70552 16.7285 3.73492L16.7217 3.8347V3.93449C16.7217 5.00992 17.1576 5.80374 17.5073 6.30266C17.664 6.52661 17.8298 6.73061 17.9365 6.85922L17.9592 6.88805C18.0727 7.02553 18.1477 7.11644 18.2226 7.21844C18.4224 7.48009 18.7063 7.88809 18.788 8.93913V12.2053C17.1628 9.54729 15.83 6.72884 14.812 3.79701L14.7938 3.74823L14.7756 3.70166C14.4986 2.99431 14.0558 1.96545 13.168 1.18049C12.1325 0.260276 10.9063 0.00527611 9.79139 0.00527611H4.61412C3.48557 0.00527611 2.1254 0.262494 1.11039 1.30688C0.113537 2.33575 0 3.56862 0 4.22053V4.51766L0.0635804 4.80592C1.49474 11.3054 4.44906 17.3925 8.69463 22.5894C10.6346 25.577 13.2684 28.076 16.3824 29.8836C19.4964 31.6913 23.0029 32.7567 26.6175 32.9933L26.7106 33H26.806C28.4545 33 30.1735 32.8603 31.4655 32.0199C33.2072 30.8846 33.3457 29.144 33.3457 28.2748V25.7514C33.793 26.1061 34.3471 26.5807 35.026 27.2193C35.848 28.022 36.502 28.7182 37.0629 29.3258L37.3626 29.6495C37.7986 30.1241 38.2277 30.5919 38.6183 30.9755C39.1088 31.4567 39.7151 31.9867 40.4735 32.3791C41.2978 32.8027 42.1629 32.9956 43.0803 32.9956H48.2598C49.3521 32.9956 50.9166 32.7428 52.0179 31.4966C53.2168 30.1396 53.126 28.4743 52.7491 27.2791L52.681 27.0641L52.5788 26.8623ZM39.5902 27.0973C38.8865 26.329 38.1619 25.5793 37.4171 24.8489L37.4103 24.8422C34.3289 21.9419 32.8915 21.4385 31.8742 21.4385C31.3315 21.4385 30.7343 21.4962 30.346 21.9707C30.1733 22.1982 30.0588 22.4628 30.0122 22.7424C29.9581 23.0678 29.9338 23.3973 29.9396 23.7269V28.2748C29.9396 28.8402 29.8442 29.0774 29.5763 29.2504C29.2198 29.4832 28.4591 29.6717 26.8264 29.6717C23.7251 29.4656 20.7181 28.5437 18.0527 26.9817C15.3873 25.4198 13.1396 23.2624 11.4944 20.6868L11.4763 20.658L11.4536 20.6314C7.49836 15.828 4.7431 10.1911 3.4061 4.16731C3.41518 3.87905 3.47876 3.70388 3.58321 3.59744C3.68994 3.48658 3.95107 3.33136 4.61412 3.33136H9.79139C10.3659 3.33136 10.6656 3.45553 10.8813 3.64401C11.122 3.86131 11.3355 4.22718 11.5898 4.87909C12.8614 8.52891 14.5781 11.9437 16.2062 14.4538C17.0191 15.7066 17.8184 16.751 18.5405 17.4894C18.9016 17.8575 19.2535 18.1635 19.5919 18.3808C19.9166 18.5892 20.2867 18.7555 20.6682 18.7555C20.868 18.7555 21.1019 18.7333 21.3267 18.638C21.5698 18.5337 21.7698 18.3525 21.8944 18.1236C22.1283 17.7067 22.1941 17.0925 22.1941 16.2876V8.8083C22.0738 6.99448 21.5129 5.97227 20.9679 5.24718C20.8574 5.10228 20.7438 4.9596 20.6273 4.81922L20.5978 4.78375C20.5014 4.66854 20.409 4.55022 20.3208 4.42896C20.2102 4.29268 20.1431 4.12767 20.1278 3.95444C20.1456 3.77824 20.2317 3.61535 20.3684 3.49911C20.5052 3.38287 20.6823 3.32206 20.8635 3.32914H29.0267C29.4945 3.32914 29.6512 3.44001 29.7307 3.54423C29.8442 3.68836 29.9396 3.9877 29.9396 4.61744V14.6578C29.9396 15.8507 30.5027 16.6579 31.3202 16.6579C32.2603 16.6579 32.9392 16.1013 34.1245 14.9438L34.145 14.9216L34.1631 14.9017C36.8224 11.7361 38.9948 8.20881 40.612 4.43118L40.6211 4.40457C40.742 4.0704 40.9719 3.78421 41.2754 3.58994C41.579 3.39567 41.9394 3.30404 42.3014 3.32914H47.5241C48.2326 3.32914 48.4642 3.50653 48.5414 3.61075C48.6209 3.72162 48.6777 3.95888 48.5414 4.42453C46.6765 8.49656 44.3706 12.362 41.6634 15.9549L41.6452 15.9816C41.3841 16.374 41.0957 16.8086 41.0548 17.3053C41.0094 17.8419 41.2455 18.3275 41.6611 18.8509C41.9631 19.2855 42.5876 19.8819 43.2211 20.4873L43.2801 20.5449C43.9432 21.1791 44.663 21.8665 45.2398 22.5317L45.2557 22.5472L45.2716 22.565C46.9912 24.2404 48.4214 26.1769 49.5065 28.2991C49.679 28.8757 49.5746 29.1728 49.4383 29.3258C49.2817 29.5032 48.9297 29.6695 48.2621 29.6695H43.0803C42.727 29.6789 42.3773 29.5987 42.0653 29.4367C41.6832 29.2181 41.3359 28.9462 41.0344 28.6295C40.7097 28.3124 40.3577 27.9288 39.9263 27.461L39.5902 27.0973Z" fill="#F3E9DD"/>
</svg>
