<svg width="60" height="60" viewBox="0 0 60 60" fill="none" xmlns="http://www.w3.org/2000/svg">
<path d="M53.8782 17.4008C53.4001 14.7617 51.122 12.8398 48.4782 12.2398C44.522 11.4008 37.2001 10.8008 29.2782 10.8008C21.361 10.8008 13.922 11.4008 9.96103 12.2398C7.32197 12.8398 5.03916 14.6398 4.56103 17.4008C4.07823 20.4008 3.6001 24.6008 3.6001 30.0008C3.6001 35.4008 4.07823 39.6008 4.67823 42.6008C5.16103 45.2398 7.43916 47.1617 10.0782 47.7617C14.2782 48.6008 21.4782 49.2008 29.4001 49.2008C37.322 49.2008 44.522 48.6008 48.722 47.7617C51.361 47.1617 53.6392 45.3617 54.122 42.6008C54.6001 39.6008 55.2001 35.2789 55.322 30.0008C55.0782 24.6008 54.4782 20.4008 53.8782 17.4008ZM22.8001 38.4008V21.6008L37.4392 30.0008L22.8001 38.4008Z" fill="#F3E9DD"/>
</svg>
